<svg width="64" height="64" viewBox="0 0 64 64" fill="none" xmlns="http://www.w3.org/2000/svg">
<path d="M32.2 36.9C15.1 36.9 2 29.8 2 45.7C2 58.5 18.9 62 31.8 62C46.8 62 62 58.5 62 45.7C62 29.8 49.8 36.9 32.2 36.9Z" fill="#89664C"/>
<path d="M31.7 20.9C22.1 20.9 7.20001 22 7.20001 33.5C7.20001 50.3 56.7 50.3 56.7 33.5C56.8 22 41.9 20.9 31.7 20.9Z" fill="#9B7861"/>
<path d="M49 16.7C44.4 6.4 22.6 17 26.4 4.5C27 2.6 26.9 1.8 25.5 2.1C17.7 3.7 12 11.7 14 18.4C20.4 39.8 55.3 30.7 49 16.7Z" fill="#A88673"/>
<path d="M28.8 34.3C28.8 38.3 25.6 41.5 21.6 41.5C17.6 41.5 14.4 38.3 14.4 34.3C14.4 30.3 17.6 27.1 21.6 27.1C25.6 27.1 28.8 30.3 28.8 34.3Z" fill="white"/>
<path d="M23.6 37.9C25.5882 37.9 27.2 36.2882 27.2 34.3C27.2 32.3118 25.5882 30.7 23.6 30.7C21.6118 30.7 20 32.3118 20 34.3C20 36.2882 21.6118 37.9 23.6 37.9Z" fill="#231F20"/>
<path d="M49.6 34.3C49.6 38.3 46.4 41.5 42.4 41.5C38.4 41.5 35.2 38.3 35.2 34.3C35.2 30.3 38.4 27.1 42.4 27.1C46.3 27.1 49.6 30.3 49.6 34.3Z" fill="white"/>
<path d="M40.4 37.9C42.3882 37.9 44 36.2882 44 34.3C44 32.3118 42.3882 30.7 40.4 30.7C38.4118 30.7 36.8 32.3118 36.8 34.3C36.8 36.2882 38.4118 37.9 40.4 37.9Z" fill="#231F20"/>
<path d="M38 50.6C38 53.9 35.3 56.6 32 56.6C28.7 56.6 26 53.9 26 50.6C26 47.3 28.7 44.6 32 44.6C35.3 44.6 38 47.3 38 50.6Z" fill="#231F20"/>
</svg>
